<svg xmlns="http://www.w3.org/2000/svg" viewBox="0 0 500 500"><linearGradient id="a" gradientUnits="userSpaceOnUse" x1="250" y1="500" x2="250" y2="0"><stop offset="0" stop-color="#00aeef"/><stop offset="1" stop-color="#2e3192"/></linearGradient><path fill="url(#a)" d="M0 0h500v500H0z"/><path d="M267.5 55.4c7.3-7.3 19.3-7.3 26.5 0l17.7 17.7c7.3 7.3 7.3 19.3 0 26.5l-4.5 4.5 88.4 88.4 4.5-4.5c7.3-7.3 19.3-7.3 26.5 0l17.7 17.7c7.4 7.4 7.4 19.3 0 26.5l-97.2 97.2c-7.3 7.3-19.3 7.3-26.5 0L303 311.8c-7.3-7.3-7.3-19.3 0-26.5l4.5-4.5-31-31-63.3 63.3 4.5 4.5c9.7 9.7 9.7 25.6 0 35.3L128 442.6c-9.7 9.7-25.6 9.7-35.3 0l-35.3-35.3c-9.7-9.7-9.7-25.6 0-35.3l89.7-89.7c9.7-9.7 25.6-9.7 35.3 0l4.5 4.5 63.3-63.3-31-31-4.5 4.5c-7.3 7.3-19.3 7.3-26.5 0l-17.7-17.7c-7.3-7.3-7.3-19.3 0-26.5" fill="#fff"/></svg>