<svg xmlns="http://www.w3.org/2000/svg" viewBox="0 0 500 500"><linearGradient id="a" gradientUnits="userSpaceOnUse" x1="250" y1="450" x2="250" y2="50"><stop offset="0" stop-color="#00aeef"/><stop offset="1" stop-color="#2e3192"/></linearGradient><path d="M400.8 49H99.2C71.5 49 49 71.5 49 99.2v226.1c0 27.7 22.5 50.2 50.2 50.2h75.4v66c0 7.7 8.8 12.2 15 7.6l98.1-73.6h113.1c27.7 0 50.2-22.5 50.2-50.2V99.2c0-27.7-22.5-50.2-50.2-50.2zm-17.6 152.8l-66.6 66.6c-5 5-13.1 5-18.2 0l-12.1-12.1c-5-5-5-13.1 0-18.2l3-3-21.1-21.1-43.4 43.4 3 3c6.7 6.7 6.7 17.5 0 24.2L166.5 346c-6.7 6.7-17.5 6.7-24.2 0L118 321.8c-6.7-6.7-6.7-17.5 0-24.2l61.4-61.4c6.7-6.7 17.5-6.7 24.2 0l3 3 43.4-43.4-21.2-21.2-3 3c-5 5-13.1 5-18.2 0l-12.1-12.1c-5-5-5-13.1 0-18.2l66.6-66.6c5-5 13.1-5 18.2 0l12.1 12.1c5 5 5 13.1 0 18.2l-3 3 60.5 60.5 3-3c5-5 13.1-5 18.2 0l12.1 12.1c5 5.1 5 13.2 0 18.2z" fill="url(#a)"/></svg>